<svg xmlns="http://www.w3.org/2000/svg" viewBox="0 0 96 96" aria-label="AWS">
  <rect width="96" height="96" rx="18" fill="#232F3E"/>
  <path fill="#fff" d="M21 51h9l1.6-5.4h10.2l1.7 5.4h9L41.2 20H32L21 51zm15.7-22.4 3.3 10.8h-6.6l3.3-10.8zM55 20h8.1l3.2 18 4.2-18h7.9l4.2 18 3.2-18h8.1l-7.4 31h-8l-4.1-17.3L70.2 51h-8L55 20z"/>
  <path fill="#FF9900" d="M23 65c16.5 8.5 37.6 9.7 55.1 1.2 2.7-1.3 5 .4 2.4 2.7C66.3 81.3 39.1 80.4 23.3 69c-2.1-1.5-1.5-5.2-.3-4z"/>
  <path fill="#FF9900" d="M72 62c3.1-.4 10.1-.8 11.3 1 1.2 1.8-1.3 7.8-2.5 10.4-.4.9-1.8.5-1.6-.5.6-2.6 1.8-6.2.8-7.4-1-1.2-4.8-.9-7.5-.6-1 .1-1.4-1.7-.5-2.9z"/>
</svg>
