<svg xmlns="http://www.w3.org/2000/svg" viewBox="0 0 96 96" aria-label="Node.js">
  <rect width="96" height="96" rx="18" fill="#edf7ea"/>
  <path fill="#83CD29" d="M48 10 81 29v38L48 86 15 67V29L48 10z"/>
  <path fill="#333" d="M31 62V35h7l13 17V35h7v27h-7L38 45v17h-7zm34 .4c-3.7 0-6.8-.8-9.2-2.4l2.4-5.8c2.1 1.3 4.4 2 7.1 2 2.3 0 3.5-.7 3.5-2.1 0-.7-.3-1.2-.9-1.6-.6-.4-1.8-.8-3.5-1.3-5.1-1.4-7.6-4.1-7.6-8 0-2.6 1-4.7 3.1-6.2 2-1.5 4.8-2.2 8.3-2.2 3 0 5.6.6 7.7 1.7l-2.2 5.6c-1.7-.9-3.6-1.4-5.8-1.4-2.1 0-3.1.7-3.1 2 0 .6.3 1.1.9 1.5.6.4 1.9.8 3.8 1.4 4.8 1.4 7.2 4 7.2 7.8 0 2.8-1.1 5-3.2 6.5-2.2 1.5-5.1 2.2-8.8 2.2z"/>
</svg>
