<svg xmlns="http://www.w3.org/2000/svg" viewBox="0 0 96 96" aria-label="TypeScript">
  <rect width="96" height="96" rx="18" fill="#3178C6"/>
  <path fill="#fff" d="M20 28h39v8H44v40h-9V36H20v-8zm43 46c-3.5 0-6.7-.7-9.6-2.1v-8.4c2.6 1.9 5.7 2.9 9.2 2.9 3.8 0 5.7-1.2 5.7-3.5 0-1.1-.5-2-1.5-2.7-1-.8-2.8-1.7-5.5-2.8-5.5-2.2-8.3-5.6-8.3-10.2 0-3.3 1.3-5.8 3.9-7.6 2.5-1.8 5.7-2.7 9.5-2.7 3.1 0 6 .5 8.5 1.6v7.9c-2.4-1.4-5-2.1-8-2.1-3.3 0-5 1.1-5 3.2 0 1 .5 1.9 1.5 2.6 1 .7 2.8 1.6 5.4 2.6 5.7 2.2 8.6 5.7 8.6 10.5 0 3.4-1.3 6-3.8 7.8-2.6 1.8-6.1 2.7-10.6 2.7z"/>
</svg>
